<svg width="25" height="28" viewBox="0 0 25 28" fill="none" xmlns="http://www.w3.org/2000/svg">
<path d="M2.45744 24.4725L0.276367 0H24.2507L22.0667 24.4686L12.249 27.1906L2.45744 24.4725Z" fill="#3c614c"/>
<path d="M12.2637 25.1106L20.1975 22.911L22.0639 2.00146H12.2637V25.1106Z" fill="#3c614c"/>
<path d="M12.2637 10.8676H16.2354L16.5093 7.79413H12.2637V4.79248H12.2744H19.7896L19.7178 5.59752L18.9807 13.8693H12.2637V10.8676Z" fill="#f0f0f0"/>
<path d="M12.2823 18.6624L12.2687 18.6662L8.92616 17.7631L8.71252 15.3694H7.08788H5.69922L6.1197 20.0821L12.2677 21.7893L12.2823 21.7854V18.6624Z" fill="#f0f0f0"/>
<path d="M15.9801 13.7419L15.6188 17.7613L12.2715 18.6644V21.7875L18.4243 20.0822L18.47 19.5753L18.9914 13.7419H15.9801Z" fill="#f0f0f0"/>
<path d="M12.2741 4.79248V6.65698V7.78636V7.79413H5.03359H5.02388L4.96367 7.11922L4.82674 5.59752L4.75488 4.79248H12.2741Z" fill="#f0f0f0"/>
<path d="M12.2631 10.8677V12.7322V13.8616V13.8693H8.97207H8.96236L8.90215 13.1944L8.7662 11.6727L8.69434 10.8677H12.2631Z" fill="#f0f0f0"/>
</svg>
