<svg width="45" height="45" viewBox="0 0 45 45" fill="none" xmlns="http://www.w3.org/2000/svg">
<path d="M11.9534 17.5437C11.567 17.2564 11.1806 17.1102 10.7942 17.1102H9.05793V27.5082H10.7942C11.1806 27.5082 11.5695 27.362 11.9559 27.0747C12.3398 26.7849 12.533 26.3515 12.533 25.7744V18.8441C12.5355 18.2669 12.3373 17.8335 11.9534 17.5437ZM40.2145 0H4.36921C1.95921 0 0.00495375 1.9493 0 4.3593V40.2244C0.00495375 42.6344 1.95921 44.5837 4.36921 44.5837H40.217C42.627 44.5837 44.5813 42.6344 44.5862 40.2244V4.3593C44.5788 1.9493 42.6245 0 40.2145 0ZM15.3442 25.7942C15.3442 27.6642 14.19 30.5027 10.5341 30.4953H5.91725V14.0315H10.6307C14.1578 14.0315 15.3418 16.865 15.3442 18.7351V25.7942ZM25.3632 16.9715H20.0627V20.7958H23.3049V23.7384H20.0627V27.5602H25.3681V30.5027H19.1809C18.0688 30.53 17.1474 29.6531 17.1177 28.541V16.0923C17.0904 14.9826 17.9697 14.0612 19.0794 14.0315H25.3681L25.3632 16.9715ZM35.6794 28.4444C34.3642 31.5034 32.0111 30.8965 30.9585 28.4444L27.1243 14.034H30.3665L33.3214 25.3508L36.2639 14.034H39.5086L35.6794 28.4444Z" fill="#343434"/>
</svg>
