<svg width="45" height="45" viewBox="0 0 45 45" fill="none" xmlns="http://www.w3.org/2000/svg">
<path fill-rule="evenodd" clip-rule="evenodd" d="M22.4972 0C10.0744 0 0 10.0744 0 22.5C0 32.4394 6.44625 40.8741 15.3872 43.8497C16.5122 44.055 16.9228 43.3603 16.9228 42.7641C16.9228 42.2297 16.9031 40.815 16.8919 38.9363C10.6341 40.2947 9.31219 35.9213 9.31219 35.9213C8.28844 33.3225 6.81469 32.6306 6.81469 32.6306C4.77281 31.2356 6.96937 31.2638 6.96937 31.2638C9.22781 31.4241 10.4147 33.5813 10.4147 33.5813C12.4228 37.0209 15.6797 36.0281 16.9622 35.4516C17.1675 33.9975 17.7469 33.0047 18.3909 32.445C13.3959 31.8769 8.14219 29.9475 8.14219 21.3244C8.14219 18.8691 9.01969 16.8609 10.4569 15.2859C10.2291 14.7178 9.45563 12.4284 10.6819 9.33188C10.6819 9.33188 12.5719 8.72719 16.8694 11.6381C18.6637 11.1403 20.5875 10.89 22.5 10.8816C24.4097 10.89 26.3363 11.1403 28.1334 11.6381C32.4281 8.72719 34.3153 9.33188 34.3153 9.33188C35.5416 12.4284 34.7709 14.7178 34.5403 15.2859C35.9831 16.8581 36.8522 18.8663 36.8522 21.3244C36.8522 29.9672 31.5928 31.8713 26.5781 32.4281C27.3853 33.1228 28.1053 34.4953 28.1053 36.5934C28.1053 39.6 28.0772 42.0272 28.0772 42.7669C28.0772 43.3688 28.4822 44.0691 29.6241 43.8497C38.5594 40.8656 45 32.4394 45 22.5C45 10.0744 34.9256 0 22.4972 0Z" fill="#343434"/>
</svg>
