<svg width="25" height="28" viewBox="0 0 25 28" fill="none" xmlns="http://www.w3.org/2000/svg">
<path d="M2.48185 24.4725L0.299805 0H24.2761L22.0911 24.4686L12.2734 27.1906L2.48185 24.4725Z" fill="#3c614c"/>
<path d="M12.2881 25.1106L20.2219 22.911L22.0884 2.00146H12.2881V25.1106Z" fill="#3c614c"/>
<path d="M12.2887 11.0774H8.3169L8.04305 8.00385H12.2887V5.0022H12.278H4.7627L4.83456 5.8082L5.57162 14.079H12.2887V11.0774Z" fill="#f0f0f0"/>
<path d="M12.2881 18.8721L12.2745 18.876L8.93202 17.9738L8.71838 15.5801H7.09374H5.70508L6.12556 20.2918L12.2745 21.999L12.2881 21.9951V18.8721Z" fill="#f0f0f0"/>
<path d="M12.2773 11.0774V14.079H15.9733L15.6257 17.9722L12.2773 18.8753V21.9983L18.4312 20.2921L18.4758 19.7852L19.1808 11.8834L19.2546 11.0774H18.4457H12.2773Z" fill="#f0f0f0"/>
<path d="M12.2773 5.0022V6.8667V7.99705V8.00385H19.5178H19.5275L19.5877 7.32991L19.7247 5.8082L19.7965 5.0022H12.2773Z" fill="#f0f0f0"/>
</svg>