<svg width="45" height="45" viewBox="0 0 45 45" fill="none" xmlns="http://www.w3.org/2000/svg">
<path d="M14.8656 22.2957C14.8656 18.1913 18.1921 14.8632 22.2966 14.8632C26.4011 14.8632 29.7294 18.1913 29.7294 22.2957C29.7294 26.4001 26.4011 29.7282 22.2966 29.7282C18.1921 29.7282 14.8656 26.4001 14.8656 22.2957ZM10.8476 22.2957C10.8476 28.6188 15.9733 33.7443 22.2966 33.7443C28.6199 33.7443 33.7456 28.6188 33.7456 22.2957C33.7456 15.9727 28.6199 10.8471 22.2966 10.8471C15.9733 10.8471 10.8476 15.9727 10.8476 22.2957ZM31.5233 10.3932C31.5227 11.8708 32.7201 13.0692 34.1978 13.0697C35.6755 13.0703 36.8739 11.873 36.8745 10.3953C36.8751 8.9177 35.6777 7.71937 34.2 7.71878H34.1989C32.7219 7.71946 31.5246 8.91627 31.5233 10.3932ZM13.2888 40.4439C11.1149 40.3449 9.93341 39.9828 9.14821 39.6769C8.10722 39.2717 7.36448 38.789 6.58356 38.0092C5.80265 37.2294 5.31926 36.4874 4.91578 35.4464C4.60969 34.6616 4.24759 33.4798 4.14877 31.306C4.04068 28.9559 4.0191 28.2499 4.0191 22.2959C4.0191 16.3419 4.04246 15.6379 4.14877 13.2857C4.24777 11.112 4.61254 9.93247 4.91578 9.14535C5.32104 8.1044 5.80372 7.36169 6.58356 6.5808C7.36341 5.79992 8.10544 5.31655 9.14821 4.91308C9.93305 4.60701 11.1149 4.24493 13.2888 4.14611C15.639 4.03802 16.345 4.01644 22.2966 4.01644C28.2482 4.01644 28.9549 4.0398 31.3071 4.14611C33.4809 4.2451 34.6605 4.60986 35.4477 4.91308C36.4887 5.31655 37.2314 5.80099 38.0123 6.5808C38.7932 7.36062 39.2748 8.1044 39.6801 9.14535C39.9862 9.93015 40.3483 11.112 40.4471 13.2857C40.5552 15.6379 40.5768 16.3419 40.5768 22.2959C40.5768 28.2499 40.5552 28.9539 40.4471 31.306C40.3481 33.4798 39.9842 34.6613 39.6801 35.4464C39.2748 36.4874 38.7922 37.2301 38.0123 38.0092C37.2325 38.7883 36.4887 39.2717 35.4477 39.6769C34.6628 39.983 33.4809 40.3451 31.3071 40.4439C28.9569 40.552 28.2509 40.5736 22.2966 40.5736C16.3423 40.5736 15.6383 40.552 13.2888 40.4439ZM13.1042 0.135023C10.7306 0.243112 9.10861 0.619464 7.69215 1.17061C6.22521 1.73978 4.98338 2.50336 3.74244 3.74229C2.5015 4.98122 1.73985 6.22496 1.17066 7.69184C0.619489 9.10914 0.243122 10.7301 0.135028 13.1036C0.0251506 15.4809 0 16.2409 0 22.2957C0 28.3505 0.0251506 29.1105 0.135028 31.4878C0.243122 33.8615 0.619489 35.4823 1.17066 36.8996C1.73985 38.3656 2.50168 39.6107 3.74244 40.8491C4.9832 42.0875 6.22521 42.85 7.69215 43.4208C9.11129 43.972 10.7306 44.3483 13.1042 44.4564C15.4828 44.5645 16.2416 44.5914 22.2966 44.5914C28.3517 44.5914 29.1117 44.5663 31.4891 44.4564C33.8628 44.3483 35.4837 43.972 36.9011 43.4208C38.3671 42.85 39.6098 42.0881 40.8508 40.8491C42.0917 39.6102 42.8518 38.3656 43.4226 36.8996C43.9737 35.4823 44.3519 33.8613 44.4582 31.4878C44.5663 29.1087 44.5914 28.3505 44.5914 22.2957C44.5914 16.2409 44.5663 15.4809 44.4582 13.1036C44.3501 10.7299 43.9737 9.10825 43.4226 7.69184C42.8518 6.22586 42.0898 4.98318 40.8508 3.74229C39.6118 2.5014 38.3671 1.73978 36.9028 1.17061C35.4837 0.619464 33.8627 0.241329 31.4908 0.135023C29.1135 0.0269332 28.3534 0 22.2984 0C16.2433 0 15.4828 0.0251496 13.1042 0.135023Z" fill="#343434"/>
</svg>
