<svg width="28" height="28" viewBox="0 0 28 28" fill="none" xmlns="http://www.w3.org/2000/svg">
<path d="M0.109375 0H27.3V27.1906H0.109375V0Z" fill="#3c614c"/>
<path d="M7.25883 22.7225L9.33965 21.4632C9.74108 22.175 10.1063 22.7772 10.9822 22.7772C11.8218 22.7772 12.3512 22.4487 12.3512 21.1712V12.4832H14.9064V21.2073C14.9064 23.8539 13.3551 25.0585 11.0917 25.0585C9.04763 25.0585 7.86108 23.9998 7.25879 22.7223" fill="#f0f0f0"/>
<path d="M16.2939 22.4488L18.3745 21.2442C18.9222 22.1386 19.634 22.7956 20.8933 22.7956C21.9521 22.7956 22.6272 22.2663 22.6272 21.5362C22.6272 20.6601 21.9337 20.3498 20.7655 19.8389L20.1269 19.5649C18.2833 18.7802 17.0604 17.7946 17.0604 15.7138C17.0604 13.7974 18.5206 12.3372 20.8021 12.3372C22.4266 12.3372 23.5947 12.903 24.4342 14.3815L22.4447 15.659C22.0066 14.8743 21.5322 14.564 20.8022 14.564C20.0538 14.564 19.5793 15.0386 19.5793 15.659C19.5793 16.4256 20.0538 16.736 21.1488 17.2106L21.7876 17.4843C23.9596 18.4153 25.1826 19.3642 25.1826 21.4997C25.1826 23.7996 23.3756 25.0588 20.9482 25.0588C18.5754 25.0588 17.0422 23.9273 16.294 22.4488" fill="#f0f0f0"/>
</svg>
