<svg width="25" height="28" viewBox="0 0 25 28" fill="none" xmlns="http://www.w3.org/2000/svg">
<path d="M12.0546 27.1867C11.6878 27.1869 11.3275 27.0904 11.0098 26.9071L7.68522 24.9389C7.18906 24.6612 7.43083 24.5632 7.59492 24.5059C8.12262 24.3429 8.62787 24.1145 9.09895 23.8262C9.13838 23.808 9.18181 23.8001 9.22514 23.8033C9.26847 23.8065 9.31025 23.8208 9.34655 23.8447L11.9012 25.3623C11.9487 25.3875 12.0017 25.4006 12.0555 25.4006C12.1094 25.4006 12.1624 25.3875 12.2099 25.3623L22.1721 19.6122C22.2187 19.5843 22.2572 19.5447 22.284 19.4974C22.3107 19.4501 22.3247 19.3966 22.3245 19.3423V7.84019C22.3245 7.78499 22.3104 7.7307 22.2833 7.68257C22.2563 7.63445 22.2173 7.59409 22.1701 7.56541L12.208 1.82019C12.161 1.79373 12.108 1.77983 12.0541 1.77983C12.0002 1.77983 11.9472 1.79373 11.9002 1.82019L1.94389 7.56735C1.89639 7.59544 1.85696 7.63531 1.8294 7.68311C1.80184 7.73091 1.7871 7.78502 1.78659 7.84019V19.3374C1.78672 19.3916 1.80127 19.4449 1.82874 19.4916C1.85621 19.5384 1.89561 19.577 1.94291 19.6035L4.67522 21.1803C6.15594 21.9202 7.06283 21.0483 7.06283 20.1725V8.82087C7.06283 8.78262 7.07036 8.74474 7.085 8.7094C7.09964 8.67406 7.1211 8.64194 7.14815 8.61489C7.1752 8.58785 7.20731 8.56639 7.24265 8.55175C7.27799 8.53711 7.31587 8.52958 7.35412 8.52958H8.61638C8.69363 8.52958 8.76772 8.56027 8.82235 8.61489C8.87698 8.66952 8.90767 8.74361 8.90767 8.82087V20.1734C8.90767 22.1494 7.83184 23.2805 5.95787 23.2805C5.14942 23.2946 4.35365 23.0784 3.66347 22.6572L1.04477 21.1551C0.726862 20.9699 0.463078 20.7047 0.27975 20.3857C0.0964225 20.0668 -3.51942e-05 19.7053 6.90534e-06 19.3374V7.84019C-0.000938026 7.47174 0.0951116 7.10952 0.278504 6.78995C0.461896 6.47038 0.72617 6.2047 1.04477 6.01963L11.0079 0.26761C11.3288 0.0920271 11.6888 0 12.0546 0C12.4204 0 12.7803 0.0920271 13.1013 0.26761L23.0634 6.01963C23.3813 6.20439 23.6451 6.4693 23.8286 6.7879C24.0121 7.10651 24.1088 7.46767 24.1091 7.83534V19.3374C24.1086 19.7053 24.0118 20.0666 23.8283 20.3855C23.6449 20.7044 23.3812 20.9697 23.0634 21.1551L13.1013 26.9071C12.783 27.0907 12.422 27.1872 12.0546 27.1867Z" fill="#3c614c"/>
<path d="M10.165 15.4896C10.165 15.4123 10.1957 15.3382 10.2504 15.2836C10.305 15.229 10.3791 15.1983 10.4563 15.1983H11.7448C11.8136 15.1985 11.8802 15.2231 11.9326 15.2677C11.9851 15.3123 12.02 15.3741 12.0312 15.442C12.2254 16.7538 12.808 17.415 15.4423 17.415C17.5405 17.415 18.4348 16.9402 18.4348 15.8265C18.4348 15.1847 18.1814 14.7079 14.9199 14.3885C12.1934 14.1186 10.5078 13.5146 10.5078 11.3358C10.5078 9.32586 12.2021 8.12671 15.0422 8.12671C18.2338 8.12671 19.8136 9.23458 20.0136 11.6115C20.0166 11.6512 20.0115 11.6911 19.9986 11.7287C19.9856 11.7663 19.9651 11.8009 19.9382 11.8303C19.9114 11.8597 19.8788 11.8833 19.8425 11.8996C19.8062 11.9159 19.7669 11.9246 19.7271 11.9251H18.4299C18.3648 11.9242 18.3019 11.9015 18.2513 11.8607C18.2006 11.8199 18.165 11.7633 18.1503 11.6999C17.8405 10.3201 17.0822 9.87931 15.0432 9.87931C12.7517 9.87931 12.4857 10.6774 12.4857 11.2756C12.4857 11.9999 12.8002 12.2116 15.8938 12.6203C18.9552 13.0252 20.4097 13.5981 20.4097 15.7498C20.4097 17.9209 18.5998 19.1637 15.4432 19.1637C11.0787 19.1695 10.165 17.1684 10.165 15.4896Z" fill="#3c614c"/>
</svg>
