<svg width="45" height="45" viewBox="0 0 45 45" fill="none" xmlns="http://www.w3.org/2000/svg">
<path d="M43.2 0H1.8C0.804375 0 0 0.804375 0 1.8V43.2C0 44.1956 0.804375 45 1.8 45H43.2C44.1956 45 45 44.1956 45 43.2V1.8C45 0.804375 44.1956 0 43.2 0ZM34.6106 16.2956C34.6275 16.56 34.6275 16.8356 34.6275 17.1056C34.6275 25.3631 28.3387 34.875 16.8469 34.875C13.3031 34.875 10.0181 33.8456 7.25062 32.0737C7.75687 32.13 8.24063 32.1525 8.75813 32.1525C11.6831 32.1525 14.3719 31.1625 16.515 29.4862C13.77 29.43 11.4637 27.63 10.6762 25.155C11.6381 25.2956 12.5044 25.2956 13.4944 25.0425C12.081 24.7553 10.8105 23.9877 9.89897 22.87C8.98739 21.7523 8.49086 20.3535 8.49375 18.9113V18.8325C9.32062 19.2994 10.2937 19.5862 11.3119 19.6256C10.456 19.0552 9.75408 18.2824 9.26838 17.3758C8.78267 16.4692 8.52819 15.4567 8.5275 14.4281C8.5275 13.2638 8.83125 12.2006 9.37688 11.2781C10.9457 13.2094 12.9034 14.7889 15.1226 15.9141C17.3419 17.0392 19.773 17.6847 22.2581 17.8088C21.375 13.5619 24.5475 10.125 28.3612 10.125C30.1612 10.125 31.7812 10.8787 32.9231 12.0938C34.335 11.8294 35.685 11.3006 36.8887 10.5919C36.4219 12.0375 35.4431 13.2581 34.1437 14.0287C35.4037 13.8937 36.6187 13.545 37.7437 13.0556C36.8944 14.3044 35.8312 15.4125 34.6106 16.2956Z" fill="#343434"/>
</svg>
