<svg width="25" height="28" fill="none" xmlns="http://www.w3.org/2000/svg"><path d="M2.457 24.473.277 0H24.25l-2.184 24.469-9.818 2.722-9.792-2.718Z" fill="#3c614c"/><path d="m12.264 25.11 7.934-2.199 1.866-20.91h-9.8v23.11Z" fill="#3c614c"/><path d="M12.264 10.868h3.971l.274-3.074h-4.245V4.792h7.526l-.072.806-.737 8.271h-6.717v-3.001ZM12.282 18.662l-.013.004-3.343-.903-.213-2.394H5.699l.42 4.713 6.149 1.707.014-.004v-3.123Z" fill="#f0f0f0"/><path d="m15.98 13.742-.361 4.02-3.348.902v3.123l6.153-1.705.046-.507.521-5.833h-3.01ZM12.274 4.792V7.794h-7.25l-.06-.675-.137-1.521-.072-.806h7.52ZM12.263 10.868v3.001h-3.3l-.06-.675-.137-1.521-.072-.805h3.57Z" fill="#f0f0f0"/></svg>