<svg width="25" height="28" fill="none" xmlns="http://www.w3.org/2000/svg"><path d="M2.482 24.473.3 0h23.976l-2.185 24.469-9.818 2.722-9.791-2.718Z" fill="#3c614c"/><path d="m12.288 25.11 7.934-2.199 1.866-20.91h-9.8v23.11Z" fill="#3c614c"/><path d="M12.289 11.077H8.317l-.274-3.073h4.246V5.002H4.763l.072.806.737 8.271h6.717v-3.002ZM12.288 18.872l-.014.004-3.342-.902-.214-2.394H5.705l.42 4.712 6.15 1.707.013-.004v-3.123Z" fill="#f0f0f0"/><path d="M12.277 11.077v3.002h3.696l-.347 3.893-3.349.903v3.123l6.154-1.706.045-.507.705-7.902.074-.806h-6.978ZM12.277 5.002V8.004h7.25l.06-.674.138-1.522.072-.806h-7.52Z" fill="#f0f0f0"/></svg>