<svg width="28" height="28" fill="none" xmlns="http://www.w3.org/2000/svg"><path d="M.11 0H27.3v27.19H.11V0Z" fill="#3c614c"/><path d="m7.259 22.723 2.08-1.26c.402.712.767 1.314 1.643 1.314.84 0 1.37-.328 1.37-1.606v-8.688h2.554v8.724c0 2.647-1.55 3.851-3.814 3.851-2.044 0-3.23-1.058-3.833-2.336M16.294 22.449l2.08-1.205c.548.895 1.26 1.552 2.52 1.552 1.058 0 1.733-.53 1.733-1.26 0-.876-.693-1.186-1.861-1.697l-.64-.274c-1.843-.785-3.066-1.77-3.066-3.851 0-1.917 1.46-3.377 3.742-3.377 1.625 0 2.793.566 3.632 2.045l-1.99 1.277c-.437-.785-.912-1.095-1.642-1.095-.748 0-1.223.475-1.223 1.095 0 .767.475 1.077 1.57 1.552l.639.273c2.172.931 3.395 1.88 3.395 4.016 0 2.3-1.807 3.559-4.235 3.559-2.373 0-3.906-1.132-4.654-2.61" fill="#f0f0f0"/></svg>