<svg width="25" height="28" fill="none" xmlns="http://www.w3.org/2000/svg"><path d="M12.055 27.187c-.367 0-.727-.097-1.045-.28L7.685 24.94c-.496-.278-.254-.376-.09-.433a6.63 6.63 0 0 0 1.504-.68.256.256 0 0 1 .248.019l2.554 1.517a.33.33 0 0 0 .309 0l9.962-5.75a.314.314 0 0 0 .152-.27V7.84a.321.321 0 0 0-.154-.275L12.208 1.82a.314.314 0 0 0-.308 0L1.944 7.567a.32.32 0 0 0-.157.273v11.497a.306.306 0 0 0 .156.267l2.732 1.576c1.48.74 2.388-.132 2.388-1.008V8.821a.291.291 0 0 1 .291-.291h1.262a.291.291 0 0 1 .292.29v11.353c0 1.976-1.076 3.108-2.95 3.108a4.262 4.262 0 0 1-2.295-.624l-2.618-1.502A2.103 2.103 0 0 1 0 19.337V7.84a2.1 2.1 0 0 1 1.045-1.82L11.008.268a2.18 2.18 0 0 1 2.093 0l9.962 5.752a2.102 2.102 0 0 1 1.046 1.815v11.502a2.107 2.107 0 0 1-1.046 1.818l-9.962 5.752a2.09 2.09 0 0 1-1.046.28Z" fill="#3c614c"/><path d="M10.165 15.49a.291.291 0 0 1 .291-.292h1.289a.291.291 0 0 1 .286.244c.194 1.312.777 1.973 3.411 1.973 2.099 0 2.993-.475 2.993-1.588 0-.642-.254-1.12-3.515-1.438-2.727-.27-4.412-.874-4.412-3.053 0-2.01 1.694-3.21 4.534-3.21 3.192 0 4.772 1.109 4.972 3.486a.293.293 0 0 1-.171.288.29.29 0 0 1-.116.025H18.43a.291.291 0 0 1-.28-.225c-.31-1.38-1.068-1.82-3.107-1.82-2.291 0-2.557.797-2.557 1.396 0 .724.314.936 3.408 1.344 3.061.405 4.516.978 4.516 3.13 0 2.17-1.81 3.414-4.967 3.414-4.364.005-5.278-1.996-5.278-3.674Z" fill="#3c614c"/></svg>